<?xml version="1.0" encoding="UTF-8"?>
<!DOCTYPE svg PUBLIC "-//W3C//DTD SVG 1.1//EN" "http://www.w3.org/Graphics/SVG/1.1/DTD/svg11.dtd">
<!-- Creator: CorelDRAW -->
<svg xmlns="http://www.w3.org/2000/svg" xml:space="preserve" width="30px" height="30px" style="shape-rendering:geometricPrecision; text-rendering:geometricPrecision; image-rendering:optimizeQuality; fill-rule:evenodd; clip-rule:evenodd"
viewBox="0 0 2048 2048"
 xmlns:xlink="http://www.w3.org/1999/xlink">
 <defs>
  <style type="text/css">
   <![CDATA[
    .fil1 {fill:none}
    .fil2 {fill:#5D4037}
    .fil0 {fill:#FFD54F}
   ]]>
  </style>
 </defs>
 <g id="Layer_x0020_1">
  <metadata id="CorelCorpID_0Corel-Layer"/>
  <path class="fil0" d="M1024 255.999c424.155,0 768.001,343.845 768.001,768.001 0,424.155 -343.845,768.001 -768.001,768.001 -424.155,0 -768.001,-343.845 -768.001,-768.001 0,-424.155 343.845,-768.001 768.001,-768.001z"/>
  <rect class="fil1" width="2048" height="2048"/>
  <rect class="fil1" x="255.999" y="255.999" width="1536" height="1536"/>
  <rect class="fil1" width="2048" height="2048"/>
  <rect class="fil1" x="255.999" y="255.999" width="1536" height="1536"/>
  <rect class="fil1" width="2048" height="2048"/>
  <rect class="fil1" x="255.999" y="255.999" width="1536" height="1536"/>
  <rect class="fil1" width="2048" height="2048"/>
  <rect class="fil1" x="255.999" y="255.999" width="1536" height="1536"/>
  <rect class="fil1" width="2048" height="2048"/>
  <rect class="fil1" x="255.999" y="255.999" width="1536" height="1536"/>
  <path class="fil2" d="M998.798 1310.7c21.8669,-28.2992 45.1583,-41.3729 69.7441,-40.7646 24.8977,0.615355 46.7091,15.0602 65.8016,41.7591 6.96969,9.74765 12.1571,14.9599 15.326,15.0414 3.48662,0.0897638 9.33662,-5.05748 17.8169,-16.0417l0.0177165 0.0129921c21.8858,-28.3429 45.202,-41.4071 69.7973,-40.7705 24.9189,0.647245 46.7445,15.111 65.8252,41.7933 6.95906,9.73111 12.1358,14.9291 15.3024,15.0071 3.45945,0.0850394 9.30119,-5.0752 17.7921,-16.0736l50.4993 39c-21.8811,28.3418 -45.1866,41.4331 -69.7914,40.8248 -24.8977,-0.615355 -46.7079,-15.0579 -65.8016,-41.7591 -6.96969,-9.74646 -12.1583,-14.9599 -15.326,-15.0414 -3.48662,-0.0897638 -9.33544,5.05748 -17.8158,16.0417l-0.0177165 -0.0129921c-21.8858,28.3429 -45.2032,41.4071 -69.7985,40.7705 -24.9177,-0.644882 -46.7445,-15.1075 -65.8252,-41.7933 -6.95906,-9.73111 -12.137,-14.9291 -15.3024,-15.0071 -3.46063,-0.0850394 -9.30119,5.0752 -17.7921,16.0736l-0.0472441 -0.0366142c-21.8669,28.2992 -45.1583,41.3729 -69.7441,40.7646 -24.8977,-0.615355 -46.7091,-15.0579 -65.8016,-41.7591 -6.96969,-9.74646 -12.1571,-14.9599 -15.326,-15.0414 -3.48662,-0.0897638 -9.33662,5.05748 -17.8169,16.0417l-0.0177165 -0.0129921c-21.8858,28.3429 -45.202,41.4071 -69.7973,40.7705 -24.9189,-0.644882 -46.7445,-15.1087 -65.8252,-41.7933 -6.95906,-9.73111 -12.137,-14.9291 -15.3024,-15.0071 -3.45945,-0.0850394 -9.30119,5.0752 -17.7921,16.0736l-50.4993 -39c21.8799,-28.3418 45.1866,-41.4331 69.7914,-40.8248 24.8977,0.615355 46.7079,15.0602 65.8016,41.7591 6.96969,9.74765 12.1583,14.9599 15.326,15.0414 3.48662,0.0897638 9.33544,-5.05748 17.8158,-16.0417l0.0177165 0.0129921c21.8858,-28.3429 45.2032,-41.4071 69.7985,-40.7705 24.9177,0.647245 46.7433,15.1099 65.8252,41.7933 6.95906,9.73229 12.1358,14.9291 15.3024,15.0071 3.46063,0.0850394 9.30237,-5.07638 17.7921,-16.0736l0.0472441 0.0366142z"/>
  <g id="_395424384">
   <path id="_395424600" class="fil2" d="M1270.77 671.997c44.1839,0 80.0008,35.817 80.0008,80.0008 0,44.1839 -35.817,80.0008 -80.0008,80.0008 -44.1839,0 -80.0008,-35.817 -80.0008,-80.0008 0,-44.1839 35.817,-80.0008 80.0008,-80.0008z"/>
   <path id="_395424456" class="fil2" d="M777.226 671.997c44.1839,0 80.0008,35.817 80.0008,80.0008 0,44.1839 -35.817,80.0008 -80.0008,80.0008 -44.1839,0 -80.0008,-35.817 -80.0008,-80.0008 0,-44.1839 35.817,-80.0008 80.0008,-80.0008z"/>
  </g>
 </g>
</svg>
